<svg xmlns="http://www.w3.org/2000/svg" viewBox="0 0 88.46 17.1"><defs><style>.cls-1{fill:#fff;}</style></defs><g id="Layer_2" data-name="Layer 2"><g id="Layer_4" data-name="Layer 4"><path class="cls-1" d="M0,.87A1.28,1.28,0,0,1,1.18.15,21.39,21.39,0,0,1,10,.87a11.45,11.45,0,0,1,6.53,5.2c.53.92.92,1.91,1.37,2.87A10.06,10.06,0,0,0,22,13.6a12.22,12.22,0,0,0,4.65,1.5c.51.06,1,.09,1.53.13h.3V9.51a1,1,0,0,1,1.38-.87.92.92,0,0,1,.58.91v5.68l1.23-.09.61-.06a1,1,0,0,1,1.1.79.89.89,0,0,1-.79,1c-1.14.1-2.28.19-3.42.2a16.69,16.69,0,0,1-6.75-1.2,11.25,11.25,0,0,1-6-5.62c-.49-1-.93-2.06-1.48-3.06A9.69,9.69,0,0,0,9.16,2.54l-.29-.09c0,.11,0,.2,0,.3,0,1.6,0,3.21,0,4.82a1,1,0,0,1-1.26.95.89.89,0,0,1-.69-.78,1.67,1.67,0,0,1,0-.32V2c-.5,0-1-.11-1.46-.13a24.68,24.68,0,0,0-4,.12C.63,2.1.36,2,0,1.35Z"/><path class="cls-1" d="M54.48,8.6c0,5.29-3.46,8.5-9.07,8.5H40.1V0h5.31C51,0,54.48,3.31,54.48,8.6Zm-9.07,6.67c4.46,0,6.79-2.5,6.79-6.67s-2.33-6.76-6.79-6.76H42.33V15.27Z"/><path class="cls-1" d="M70.85,0V17.1H68.62l-9-13.6V17.1H57.42V0h2.23l9,13.58V0Z"/><path class="cls-1" d="M84.74,13.31H77.29L75.91,17.1H73.56l6.18-17h2.57l6.15,17H86.11ZM81,2.87l-3.09,8.62H84.1Z"/></g></g></svg>