<svg version="1.1" id="Layer_1" xmlns="http://www.w3.org/2000/svg" xmlns:xlink="http://www.w3.org/1999/xlink" x="0px" y="0px"
	 width="100%" viewBox="0 0 5600 1000" enable-background="new 0 0 5600 1000" xml:space="preserve">
<path fill="none" opacity="1.000000" stroke="#000000" stroke-linecap="round" stroke-linejoin="round" stroke-width="3.000000"
	d="
M619.000000,640.000000 
	C610.205505,640.107849 601.485352,639.571167 593.000000,637.000000 
"/>
<path fill="none" opacity="1.000000" stroke="#000000" stroke-linecap="round" stroke-linejoin="round" stroke-width="9.000000"
	d="
M1134.000000,285.000000 
	C1150.152466,301.590454 1154.734619,320.413788 1145.000000,342.000000 
"/>
<path fill="none" opacity="1.000000" stroke="#000000" stroke-linecap="round" stroke-linejoin="round" stroke-width="11.000000"
	d="
M4823.000000,538.000000 
	C4828.190430,554.041870 4831.663574,570.504150 4835.000000,587.000000 
"/>
<path fill="none" opacity="1.000000" stroke="#000000" stroke-linecap="round" stroke-linejoin="round" stroke-width="4.000000"
	d="
M4651.000488,396.999939 
	C4655.000488,413.666595 4659.000488,430.333282 4663.000488,446.999939 
"/>
<path fill="none" opacity="1.000000" stroke="#000000" stroke-linecap="round" stroke-linejoin="round" stroke-width="5.000000"
	d="
M1941.000000,477.000031 
	C1933.666626,476.666687 1926.333374,476.333344 1919.000000,476.000031 
"/>
<path fill="none" opacity="1.000000" stroke="#000000" stroke-linecap="round" stroke-linejoin="round" stroke-width="3.000000"
	d="
M1260.000000,492.000000 
	C1257.293213,498.035187 1252.072266,502.591553 1250.000000,509.000000 
"/>
<path fill="none" opacity="1.000000" stroke="#000000" stroke-linecap="round" stroke-linejoin="round" stroke-width="3.000000"
	d="
M3179.000000,524.000000 
	C3185.345947,524.075562 3189.978271,529.006042 3196.000000,530.000000 
"/>
<path fill="none" opacity="1.000000" stroke="#000000" stroke-linecap="round" stroke-linejoin="round" stroke-width="3.000000"
	d="
M3092.000000,559.000000 
	C3092.819092,565.110107 3088.835693,569.719482 3087.000000,575.000000 
"/>
<path fill="none" opacity="1.000000" stroke="#000000" stroke-linecap="round" stroke-linejoin="round" stroke-width="3.000000"
	d="
M1352.000000,559.000000 
	C1351.440918,564.873657 1346.774170,569.206970 1346.000000,575.000000 
"/>
<path fill="none" opacity="1.000000" stroke="#000000" stroke-linecap="round" stroke-linejoin="round" stroke-width="3.000000"
	d="
M427.000000,611.000000 
	C431.624329,612.197571 435.943665,614.818420 441.000000,614.000000 
"/>
<path fill="none" opacity="1.000000" stroke="#000000" stroke-linecap="round" stroke-linejoin="round" stroke-width="3.000000"
	d="
M484.000031,677.000000 
	C482.666687,682.000000 481.333344,687.000000 480.000031,692.000000 
"/>
<path fill="none" opacity="1.000000" stroke="#000000" stroke-linecap="round" stroke-linejoin="round" stroke-width="3.000000"
	d="
M1824.000000,515.000000 
	C1823.603516,519.662170 1824.956177,524.449280 1823.000000,529.000000 
"/>
<path fill="none" opacity="1.000000" stroke="#000000" stroke-linecap="round" stroke-linejoin="round" stroke-width="3.000000"
	d="
M741.000000,532.000000 
	C752.456909,537.837219 764.452820,542.181946 777.000000,545.000000 
"/>
<path fill="none" opacity="1.000000" stroke="#000000" stroke-linecap="round" stroke-linejoin="round" stroke-width="3.000000"
	d="
M798.000000,549.000000 
	C798.349060,558.356018 796.836487,567.845032 800.000000,577.000000 
"/>
<path fill="none" opacity="1.000000" stroke="#000000" stroke-linecap="round" stroke-linejoin="round" stroke-width="3.000000"
	d="
M852.000000,466.000000 
	C850.666687,471.000000 849.333374,476.000000 848.000000,481.000000 
"/>
<path fill="none" opacity="1.000000" stroke="#000000" stroke-linecap="round" stroke-linejoin="round" stroke-width="3.000000"
	d="
M785.000000,551.000000 
	C785.029724,555.688354 784.712402,560.401489 786.000000,565.000000 
"/>
</svg>